:SAMPLES-PER-SECOND 30
:FULLY-SPECIFIED
:DEGREES
354
root  70.3461 39.132 16.407 163.301 68.9645 153.553
RightUpLeg  -23.2989 -12.2882 -6.83325
RightLeg  10.1317 2.7188 2.12929
RightFoot  6.4345 0.583602 -3.44646
RightToes  5.82063e-011 0 -3.6325e-017
Spine  24.3043 -3.59196 -1.10718
Spine1  7.10267 -5.23011 4.25046
HEad  -91.957 -38.812 70.661
LeftShoulder1  1.84494 -8.19807 -8.27833
LeftArm  -52.2663 -74.4985 1.72101
LeftForeArm  -24.5065 -5.73148 -0.95884
LeftHand  0.00117324 7.48684 2.55154
RightShoulder  0.137704 3.90848 -7.56952
RightArm  95.978 46.8265 44.6645
RightForeArm  117.551 41.163 168.242
RightHand  34.8787 -57.0584 -63.8821
LeftUpLeg  0.0940384 14.2173 2.08219
LeftLeg  11.0222 11.6862 -0.109113
LeftFoot  -6.0883 0.48099 -9.67341
LeftToes  1.68253e-010 -3.2327e-011 -2.69673e-012
355
root  70.1859 39.1484 16.449 164.135 67.1754 154.808
RightUpLeg  -22.7683 -12.9513 -7.53627
RightLeg  10.2067 1.77337 2.06564
RightFoot  6.54623 0.613301 -3.60858
RightToes  5.82063e-011 0 -3.6325e-017
Spine  24.2062 -3.68087 -2.02272
Spine1  7.388 -5.92947 5.82871
HEad  -92.9675 -38.8036 70.5764
LeftShoulder1  1.83976 -8.27191 -8.11395
LeftArm  -50.0004 -74.0284 -2.34255
LeftForeArm  -20.8317 -7.74475 -0.413057
LeftHand  -0.0498544 8.69382 -0.212836
RightShoulder  0.135524 3.6858 -7.53448
RightArm  95.7839 46.0558 42.9882
RightForeArm  116.601 41.9428 167.929
RightHand  31.7866 -54.6497 -61.8363
LeftUpLeg  2.11595 16.0276 2.57213
LeftLeg  11.6389 9.75617 -0.240844
LeftFoot  -5.99504 0.484083 -9.58636
LeftToes  1.68253e-010 -3.2327e-011 -2.69673e-012
356
root  69.9676 39.1408 16.5042 165.255 64.9428 155.902
RightUpLeg  -22.6769 -14.0127 -8.36508
RightLeg  10.2452 0.47234 2.05851
RightFoot  6.62356 0.595255 -3.47517
RightToes  5.82063e-011 0 -3.6325e-017
Spine  24.1876 -4.18425 -1.52434
Spine1  5.92027 -5.98202 4.72215
HEad  -94.1954 -39.6391 71.0362
LeftShoulder1  2.0119 -8.41904 -9.51909
LeftArm  -47.8323 -75.6503 -4.20297
LeftForeArm  -19.9729 -8.38972 -1.43883
LeftHand  -0.0515455 7.80763 -0.352094
RightShoulder  0.260731 3.69359 -5.534
RightArm  92.9915 44.2263 40.6232
RightForeArm  112.536 42.0603 167.741
RightHand  29.6945 -52.9025 -60.2977
LeftUpLeg  2.9132 18.8779 2.96889
LeftLeg  13.1282 7.5775 0.136666
LeftFoot  -5.45647 0.526019 -9.58045
LeftToes  1.68253e-010 -3.2327e-011 -2.69673e-012
357
root  69.7352 39.1276 16.5522 166.236 62.7576 157.194
RightUpLeg  -22.3282 -14.981 -9.08977
RightLeg  10.4904 -0.755337 1.97119
RightFoot  6.66328 0.56316 -3.26343
RightToes  5.82063e-011 0 -3.6325e-017
Spine  23.7518 -4.37497 -1.84596
Spine1  6.18886 -6.32829 5.05996
HEad  -95.3524 -40.5495 72.1486
LeftShoulder1  2.02447 -8.38916 -9.68217
LeftArm  -44.4902 -76.1286 -9.42617
LeftForeArm  -18.15 -10.2954 -1.33808
LeftHand  -0.0650307 7.77742 -1.20104
RightShoulder  0.298169 3.65159 -4.9075
RightArm  91.9621 42.6463 37.9666
RightForeArm  105.949 43.4438 167.007
RightHand  24.6759 -46.9961 -58.483
LeftUpLeg  3.79668 21.9685 3.81879
LeftLeg  14.4192 5.50756 0.400402
LeftFoot  -5.27474 0.546053 -9.70368
LeftToes  1.68253e-010 -3.2327e-011 -2.69673e-012
358
root  69.477 39.1246 16.6251 167.379 60.1139 158.492
RightUpLeg  -21.9362 -15.9794 -9.96884
RightLeg  10.5081 -2.44091 1.83752
RightFoot  6.88352 0.559721 -3.19245
RightToes  5.82063e-011 0 -3.6325e-017
Spine  23.2517 -4.61005 -2.28032
Spine1  6.13574 -6.7285 5.39543
HEad  -96.33 -42.2213 72.9429
LeftShoulder1  2.07606 -8.56769 -9.87686
LeftArm  -39.4299 -75.9285 -15.9578
LeftForeArm  -17.2953 -12.6139 -1.78228
LeftHand  -0.0724318 6.8666 -2.5191
RightShoulder  0.352162 3.56399 -3.96736
RightArm  92.8617 40.6915 37.6614
RightForeArm  108.286 44.0623 166.837
RightHand  24.5492 -47.0278 -58.1175
LeftUpLeg  4.14104 24.5671 4.57476
LeftLeg  15.0499 4.95242 0.551094
LeftFoot  -4.32406 0.591939 -9.20604
LeftToes  1.68253e-010 -3.2327e-011 -2.69673e-012
